<svg xmlns="http://www.w3.org/2000/svg" viewBox="0 0 164.51383 100.00021"><path fill="#fff" d="M77.7 7.02c-1.93-.007-3.51-1.58-3.51-3.51.004-1.96 1.58-3.53 3.51-3.51 1.95-.021 3.53 1.56 3.51 3.51.015 1.93-1.56 3.5-3.51 3.51zM87.1 7.02c1.94-.007 3.51-1.58 3.51-3.51 0-1.96-1.58-3.53-3.51-3.51-1.95-.021-3.52 1.56-3.51 3.51-.013 1.93 1.56 3.5 3.51 3.51zM101 78.1c4.87-.809 9.73-5.9 9.72-12.1v-45.3c.012-6.39-5.38-12.3-12.7-12.3h-31.3c-7.34-.007-12.7 5.87-12.7 12.3v45.3c-.007 6.21 4.85 11.3 9.72 12.1l-14.6 21.9h8.45l10.4-15.4h28.7l10.5 15.4h8.4l-14.6-21.9zm-26.9-65c.002-1.14.969-2.07 2.08-2.09h12.3c1.12.016 2.09.952 2.09 2.09v3.56c0 1.13-.916 2.09-2.09 2.09h-12.3c-1.17.004-2.08-.955-2.08-2.09v-3.56zm-7.68 58.4c-3.06-.023-5.55-2.52-5.55-5.6-.007-3.07 2.49-5.56 5.55-5.55 3.09-.016 5.58 2.48 5.6 5.55-.013 3.08-2.51 5.58-5.6 5.6zm.713-29.5c-3.51-.021-6.37-2.42-6.36-6.36v-8.14c.025-3.4 2.22-6.36 6.36-6.36h30.4c4.15.007 6.34 2.97 6.36 6.36v8.14c.011 3.94-2.85 6.34-6.36 6.36h-30.4zm25.4 23.9c-.009-3.07 2.48-5.56 5.54-5.55 3.09-.016 5.58 2.48 5.6 5.55-.016 3.08-2.51 5.57-5.6 5.6-3.06-.024-5.55-2.52-5.54-5.6zM141 21.8c.87-2.5-.275-5.3-2.72-6.44-1.96-.915-4.2-.505-5.71.862.078-2.03-1.05-4.01-3.01-4.93-2.45-1.14-5.33-.221-6.68 2.05-.09.151-.174.309-.25.472-2.68 5.74 3.1 11.7 3.35 16.5 3.82-2.88 12.1-2.3 14.8-8.04.076-.163.143-.328.201-.495zM164 51.4c1.18-4.62-1.31-9.48-5.88-11.2-3.67-1.34-7.63-.265-10.1 2.42-.171-3.67-2.5-7.06-6.16-8.4-4.58-1.68-9.61.418-11.7 4.71-.139.286-.265.582-.377.887-3.94 10.7 7.38 20.6 8.56 29.2 6.43-5.76 21.5-6 25.4-16.7.112-.305.207-.612.286-.92zM86.8 7.02c1.93-.007 3.51-1.58 3.51-3.51-.004-1.96-1.58-3.53-3.51-3.51-1.95-.021-3.53 1.56-3.51 3.51-.015 1.93 1.56 3.5 3.51 3.51zM77.4 7.02c-1.94-.007-3.51-1.58-3.51-3.51 0-1.96 1.58-3.53 3.51-3.51 1.95-.021 3.52 1.56 3.51 3.51.013 1.93-1.56 3.5-3.51 3.51zM23.6 21.8c-.87-2.5.275-5.3 2.72-6.44 1.96-.915 4.2-.505 5.71.862-.078-2.03 1.05-4.01 3.01-4.93 2.45-1.14 5.33-.221 6.68 2.05.09.151.174.309.25.472 2.68 5.74-3.1 11.7-3.35 16.5-3.8-2.9-12.1-2.3-14.8-8.1l-.2-.5zM.292 51.4c-1.18-4.62 1.31-9.48 5.88-11.2 3.67-1.34 7.63-.265 10.1 2.42.171-3.67 2.5-7.06 6.16-8.4 4.58-1.68 9.61.418 11.7 4.71.139.286.265.582.377.887 3.94 10.7-7.38 20.6-8.56 29.2-6.5-5.7-21.5-5.9-25.4-16.7-.112-.305-.207-.612-.286-.92z"/></svg>