<?xml version="1.0" encoding="UTF-8" standalone="no"?>
<!-- Created with Inkscape (http://www.inkscape.org/) -->

<svg
   xmlns:dc="http://purl.org/dc/elements/1.1/"
   xmlns:cc="http://creativecommons.org/ns#"
   xmlns:rdf="http://www.w3.org/1999/02/22-rdf-syntax-ns#"
   xmlns:svg="http://www.w3.org/2000/svg"
   xmlns="http://www.w3.org/2000/svg"
   xmlns:sodipodi="http://sodipodi.sourceforge.net/DTD/sodipodi-0.dtd"
   xmlns:inkscape="http://www.inkscape.org/namespaces/inkscape"
   width="192"
   height="192"
   id="svg4296"
   version="1.1"
   inkscape:version="0.48.2 r9819"
   sodipodi:docname="New document 20">
  <defs
     id="defs4298" />
  <sodipodi:namedview
     id="base"
     pagecolor="#ffffff"
     bordercolor="#666666"
     borderopacity="1.0"
     inkscape:pageopacity="0.0"
     inkscape:pageshadow="2"
     inkscape:zoom="2.2292888"
     inkscape:cx="67.959624"
     inkscape:cy="115.86687"
     inkscape:document-units="px"
     inkscape:current-layer="layer1"
     showgrid="false"
     inkscape:window-width="1407"
     inkscape:window-height="1094"
     inkscape:window-x="690"
     inkscape:window-y="128"
     inkscape:window-maximized="0" />
  <metadata
     id="metadata4301">
    <rdf:RDF>
      <cc:Work
         rdf:about="">
        <dc:format>image/svg+xml</dc:format>
        <dc:type
           rdf:resource="http://purl.org/dc/dcmitype/StillImage" />
        <dc:title></dc:title>
      </cc:Work>
    </rdf:RDF>
  </metadata>
  <g
     inkscape:label="Layer 1"
     inkscape:groupmode="layer"
     id="layer1"
     transform="translate(0,-860.36218)">
    <rect
       style="fill:#da50a8;fill-opacity:1;stroke:none"
       id="rect4404"
       width="192"
       height="192"
       x="0"
       y="0"
       transform="translate(0,860.36218)"
       ry="25.352112" />
    <g
       id="g4415"
       transform="matrix(0.90899348,0,0,0.90899348,8.9509571,84.926021)">
      <path
         inkscape:connector-curvature="0"
         id="path3053"
         d="m 90.984292,891.92022 c -3.043755,-0.011 -5.523794,-2.49107 -5.530093,-5.52852 0.0063,-3.08155 2.486338,-5.56316 5.530093,-5.5301 3.073673,-0.0331 5.552137,2.44855 5.528518,5.5301 0.02362,3.03745 -2.456419,5.51749 -5.528518,5.52852 l 0,0 z"
         style="fill:#ffffff" />
      <path
         inkscape:connector-curvature="0"
         id="path3055"
         d="m 105.72911,891.92022 c 3.04847,-0.011 5.53009,-2.49107 5.53009,-5.52852 0,-3.08155 -2.48162,-5.56159 -5.53009,-5.5301 -3.07053,-0.0331 -5.55057,2.44855 -5.5301,5.5301 -0.0205,3.03745 2.45957,5.51749 5.5301,5.52852 l 0,0 z"
         style="fill:#ffffff" />
      <path
         inkscape:connector-curvature="0"
         id="path3057"
         d="m 127.68414,1003.7833 c 7.67158,-1.2738 15.32112,-9.28711 15.3038,-19.06713 v -71.39991 c 0.0189,-10.0666 -8.46362,-19.32226 -19.95368,-19.31124 H 98.43543 73.753141 c -11.559342,-0.011 -20.041861,9.24464 -20.030839,19.31124 v 71.39991 c -0.01102,9.78002 7.640094,17.79483 15.303807,19.06713 l -22.995863,34.5411 h 13.299305 l 16.426516,-24.2021 h 22.599057 22.597486 l 16.50524,24.2021 H 150.68 l -22.99586,-34.5411 z M 85.373893,901.38058 c 0.0032,-1.78878 1.525815,-3.26263 3.283099,-3.28782 h 9.696558 9.69813 c 1.75886,0.0252 3.28782,1.49904 3.28782,3.28782 v 5.6041 c 0,1.78405 -1.44235,3.29412 -3.28782,3.28782 h -9.696556 -9.696557 c -1.837591,0.006 -3.27995,-1.50377 -3.283099,-3.28782 v -5.6041 z M 73.27288,993.36875 c -4.816787,-0.0362 -8.743908,-3.96333 -8.732886,-8.81476 -0.01102,-4.83568 3.916099,-8.75808 8.732886,-8.73446 4.865599,-0.0252 8.792721,3.89878 8.814765,8.73446 -0.02047,4.853 -3.949166,8.77855 -8.814765,8.81476 z m 1.122709,-46.39483 c -5.523794,-0.0331 -10.028804,-3.81217 -10.017781,-10.01935 v -12.81905 c 0.03937,-5.34743 3.494099,-10.00833 10.017781,-10.01935 h 23.959535 23.957956 c 6.53156,0.011 9.98786,4.67192 10.01936,10.01935 v 12.81905 c 0.0173,6.20718 -4.48769,9.98786 -10.01936,10.01935 H 98.355124 74.395589 z m 40.067981,37.58164 c -0.0142,-4.83568 3.90822,-8.75808 8.73131,-8.73446 4.86559,-0.0252 8.79271,3.89878 8.81791,8.73446 -0.0252,4.85143 -3.95232,8.77698 -8.81791,8.81477 -4.82309,-0.0378 -8.74549,-3.96334 -8.73131,-8.81477 z"
         style="fill:#ffffff" />
      <path
         inkscape:connector-curvature="0"
         d="m 105.33033,891.92022 c 3.04375,-0.011 5.52379,-2.49107 5.53009,-5.52852 -0.006,-3.08155 -2.48634,-5.56316 -5.53009,-5.5301 -3.07368,-0.0331 -5.552139,2.44855 -5.52852,5.5301 -0.02362,3.03745 2.45642,5.51749 5.52852,5.52852 l 0,0 z"
         id="path3142"
         style="fill:#ffffff" />
      <path
         inkscape:connector-curvature="0"
         d="m 90.585514,891.92022 c -3.048479,-0.011 -5.530092,-2.49107 -5.530092,-5.52852 0,-3.08155 2.481613,-5.56159 5.530092,-5.5301 3.070524,-0.0331 5.550563,2.44855 5.530093,5.5301 0.02047,3.03745 -2.459569,5.51749 -5.530093,5.52852 l 0,0 z"
         id="path3144"
         style="fill:#ffffff" />
    </g>
    <path
       style="fill:#ffffff"
       inkscape:connector-curvature="0"
       d="m 14.970979,897.46986 c -1.369674,-3.9311 0.433342,-8.33802 4.286647,-10.13579 3.088528,-1.44096 6.614118,-0.7952 8.990491,1.35769 -0.122978,-3.20421 1.647286,-6.32077 4.735536,-7.76159 3.853589,-1.7979 8.389306,-0.34833 10.521449,3.22704 0.142126,0.23818 0.273537,0.48623 0.393405,0.74316 4.218905,9.04273 -4.887469,18.48819 -5.281465,26.01598 h 0 c -6.021559,-4.53425 -19.110308,-3.62453 -23.329339,-12.66755 -0.119877,-0.25693 -0.225525,-0.51701 -0.316724,-0.77894 z"
       id="path3148" />
  </g>
</svg>
