<?xml version="1.0" encoding="UTF-8" standalone="no"?>
<!-- Generator: Adobe Illustrator 14.0.0, SVG Export Plug-In . SVG Version: 6.00 Build 43363)  -->

<svg
   xmlns:dc="http://purl.org/dc/elements/1.1/"
   xmlns:cc="http://creativecommons.org/ns#"
   xmlns:rdf="http://www.w3.org/1999/02/22-rdf-syntax-ns#"
   xmlns:svg="http://www.w3.org/2000/svg"
   xmlns="http://www.w3.org/2000/svg"
   xmlns:sodipodi="http://sodipodi.sourceforge.net/DTD/sodipodi-0.dtd"
   xmlns:inkscape="http://www.inkscape.org/namespaces/inkscape"
   version="1.0"
   id="Layer_1"
   x="0px"
   y="0px"
   width="164.51382"
   height="100.00021"
   viewBox="0 0 164.51383 100.00021"
   enable-background="new 0 0 66.461 100"
   xml:space="preserve"
   inkscape:version="0.48.2 r9819"
   sodipodi:docname="icon_67.svg"><metadata
   id="metadata3063"><rdf:RDF><cc:Work
       rdf:about=""><dc:format>image/svg+xml</dc:format><dc:type
         rdf:resource="http://purl.org/dc/dcmitype/StillImage" /><dc:title></dc:title></cc:Work></rdf:RDF></metadata><defs
   id="defs3061" /><sodipodi:namedview
   pagecolor="#ffffff"
   bordercolor="#666666"
   borderopacity="1"
   objecttolerance="10"
   gridtolerance="10"
   guidetolerance="10"
   inkscape:pageopacity="0"
   inkscape:pageshadow="2"
   inkscape:window-width="1189"
   inkscape:window-height="1059"
   id="namedview3059"
   showgrid="false"
   fit-margin-top="0"
   fit-margin-left="0"
   fit-margin-right="0"
   fit-margin-bottom="0"
   inkscape:zoom="2.36"
   inkscape:cx="82.383042"
   inkscape:cy="49.999999"
   inkscape:window-x="1759"
   inkscape:window-y="203"
   inkscape:window-maximized="0"
   inkscape:current-layer="Layer_1" />
<path
   d="m 77.701543,7.0232064 c -1.933,-0.007 -3.508,-1.582 -3.512,-3.511 0.004,-1.957 1.579,-3.53300005 3.512,-3.51200004804 1.952,-0.021000002 3.526,1.55500004804 3.511,3.51200004804 0.015,1.929 -1.56,3.504 -3.511,3.511 l 0,0 z"
   id="path3053"
   inkscape:connector-curvature="0" />
<path
   d="m 87.065543,7.0232064 c 1.936,-0.007 3.512,-1.582 3.512,-3.511 0,-1.957 -1.576,-3.53200005 -3.512,-3.51200004804 -1.95,-0.021000002 -3.525,1.55500004804 -3.512,3.51200004804 -0.013,1.929 1.562,3.504 3.512,3.511 l 0,0 z"
   id="path3055"
   inkscape:connector-curvature="0" />
<path
   d="m 101.00854,78.064206 c 4.872,-0.809 9.73,-5.898 9.719,-12.109 v -45.344 c 0.012,-6.393 -5.375,-12.2709996 -12.671997,-12.2639996 h -15.622 -15.675 c -7.341,-0.007 -12.728,5.8709996 -12.721,12.2639996 v 45.344 c -0.007,6.211 4.852,11.301 9.719,12.109 l -14.604,21.936004 h 8.446 l 10.432,-15.370004 h 14.352 14.351 l 10.481997,15.370004 h 8.397 l -14.604,-21.936004 z m -26.869997,-65.033 c 0.002,-1.136 0.969,-2.072 2.085,-2.088 h 6.158 6.159 c 1.117,0.016 2.088,0.952 2.088,2.088 v 3.559 c 0,1.133 -0.916,2.092 -2.088,2.088 h -6.158 -6.158 c -1.167,0.004 -2.083,-0.955 -2.085,-2.088 v -3.559 z m -7.685,58.419 c -3.059,-0.023 -5.553,-2.517 -5.546,-5.598 -0.007,-3.071 2.487,-5.562 5.546,-5.547 3.09,-0.016 5.584,2.476 5.598,5.547 -0.013,3.082 -2.508,5.575 -5.598,5.598 z m 0.713,-29.464 c -3.508,-0.021 -6.369,-2.421 -6.362,-6.363 v -8.141 c 0.025,-3.396 2.219,-6.356 6.362,-6.363 h 15.216 15.215 c 4.147997,0.007 6.342997,2.967 6.362997,6.363 v 8.141 c 0.011,3.942 -2.85,6.343 -6.362997,6.363 h -15.215 -15.216 z m 25.446,23.867 c -0.009,-3.071 2.482,-5.562 5.545,-5.547 3.089997,-0.016 5.583997,2.476 5.599997,5.547 -0.016,3.081 -2.51,5.574 -5.599997,5.598 -3.063,-0.024 -5.554,-2.517 -5.545,-5.598 z"
   id="path3057"
   inkscape:connector-curvature="0" />
<path
   id="path3129"
   d="m 140.90015,21.813639 c 0.86984,-2.496525 -0.2752,-5.295234 -2.72232,-6.436943 -1.96144,-0.915112 -4.20044,-0.505007 -5.7096,0.862227 0.0781,-2.034898 -1.04614,-4.014132 -3.0074,-4.92916 -2.4473,-1.141794 -5.3278,-0.221209 -6.68187,2.0494 -0.0903,0.15126 -0.17371,0.308794 -0.24984,0.47196 -2.6793,5.742775 3.10389,11.741311 3.35411,16.521987 h 0 c 3.82411,-2.879567 12.1364,-2.301834 14.81578,-8.044791 0.0761,-0.163166 0.14322,-0.328333 0.20114,-0.494683 z"
   inkscape:connector-curvature="0" /><path
   id="path3140"
   d="m 164.22145,51.424031 c 1.18161,-4.621876 -1.30575,-9.478497 -5.88043,-11.156484 -3.66674,-1.344952 -7.62957,-0.264702 -10.13362,2.424657 -0.1712,-3.670636 -2.49566,-7.057052 -6.16208,-8.401884 -4.57502,-1.678111 -9.61307,0.418206 -11.6999,4.708051 -0.13912,0.285784 -0.26506,0.581798 -0.37694,0.886822 -3.93781,10.735632 7.37881,20.635117 8.56083,29.192284 h 0 c 6.43464,-5.763009 21.4683,-5.997259 25.40623,-16.733231 0.11189,-0.305024 0.20722,-0.612265 0.28588,-0.920225 z"
   inkscape:connector-curvature="0" /><path
   id="path3142"
   d="m 86.812291,7.0232064 c 1.933,-0.007 3.508,-1.582 3.512,-3.511 -0.004,-1.957 -1.579,-3.53300005 -3.512,-3.51200004804 -1.952,-0.021000002 -3.526,1.55500004804 -3.511,3.51200004804 -0.015,1.929 1.56,3.504 3.511,3.511 l 0,0 z"
   inkscape:connector-curvature="0" /><path
   id="path3144"
   d="m 77.448291,7.0232064 c -1.936,-0.007 -3.512,-1.582 -3.512,-3.511 0,-1.957 1.576,-3.53200005 3.512,-3.51200004804 1.95,-0.021000002 3.525,1.55500004804 3.512,3.51200004804 0.013,1.929 -1.562,3.504 -3.512,3.511 l 0,0 z"
   inkscape:connector-curvature="0" /><path
   inkscape:connector-curvature="0"
   d="m 23.613683,21.813639 c -0.86984,-2.496525 0.275203,-5.295234 2.722324,-6.436943 1.961434,-0.915112 4.200433,-0.505007 5.709598,0.862227 -0.0781,-2.034898 1.046143,-4.014132 3.0074,-4.92916 2.447302,-1.141794 5.327803,-0.221209 6.681865,2.0494 0.09026,0.15126 0.173715,0.308794 0.24984,0.47196 2.679303,5.742775 -3.103889,11.741311 -3.354104,16.521987 h 0 C 34.80649,27.473543 26.494208,28.051276 23.814825,22.308319 23.738695,22.145153 23.671601,21.979986 23.613683,21.813636 z"
   id="path3148" /><path
   inkscape:connector-curvature="0"
   d="m 0.29238139,51.424031 c -1.18161,-4.621876 1.30575001,-9.478497 5.88043001,-11.156484 3.66674,-1.344952 7.6295696,-0.264702 10.1336246,2.424657 0.1712,-3.670636 2.49566,-7.057052 6.162074,-8.401884 4.575029,-1.678111 9.613079,0.418206 11.699902,4.708051 0.139123,0.285784 0.265062,0.581798 0.376944,0.886822 3.93781,10.735632 -7.378815,20.635117 -8.560831,29.192284 h 0 C 19.549886,63.314468 4.5162214,63.080218 0.57829139,52.344246 c -0.11189,-0.305024 -0.20722,-0.612265 -0.28588,-0.920225 z"
   id="path3150" /></svg>